<svg xmlns="http://www.w3.org/2000/svg" xmlns:xlink="http://www.w3.org/1999/xlink" width="44" height="14" viewBox="0 0 44 14">
  <defs>
    <style>
      .cls-1 {
        fill: none;
      }

      .cls-2 {
        clip-path: url(#clip-path);
      }

      .cls-3, .cls-4 {
        fill: #fff;
      }

      .cls-3 {
        fill-rule: evenodd;
      }
    </style>
    <clipPath id="clip-path">
      <rect id="사각형_101" data-name="사각형 101" class="cls-1" width="44" height="14" transform="translate(0 0.039)"/>
    </clipPath>
  </defs>
  <g id="kakaoPat-white-logo" transform="translate(0 -0.04)">
    <g id="그룹_74" data-name="그룹 74" class="cls-2" transform="translate(0 0.001)">
      <path id="패스_52" data-name="패스 52" class="cls-3" d="M6.79,0C3.041,0,0,2.462,0,5.5a5.362,5.362,0,0,0,3.151,4.645l-.64,2.45a.206.206,0,0,0,.049.209.185.185,0,0,0,.257.013l2.752-1.907A8.435,8.435,0,0,0,6.79,11c3.75,0,6.791-2.462,6.791-5.5S10.54,0,6.79,0" transform="translate(0 0)"/>
      <path id="패스_53" data-name="패스 53" class="cls-4" d="M56.858,10.6v3.552H54.391V1.051h1.74l.3.832a3.463,3.463,0,0,1,2.6-1.109c2.416,0,3.565,1.854,3.548,4.852,0,3.137-1.774,5.147-4.308,5.147a5.275,5.275,0,0,1-1.419-.173m0-7.434V8.832a6.926,6.926,0,0,0,.794.052c1.757,0,2.433-1.265,2.433-3.258,0-1.75-.456-2.808-1.859-2.808a3.144,3.144,0,0,0-1.368.347" transform="translate(-37.555 -0.528)"/>
      <path id="패스_54" data-name="패스 54" class="cls-4" d="M89.624,4.742h1.4V4.43A1.38,1.38,0,0,0,89.455,2.9a6.052,6.052,0,0,0-2.534.624l-.676-1.7A6.341,6.341,0,0,1,89.675.773c2.365,0,3.649,1.283,3.649,3.726v6.013h-1.74l-.254-.8a4.593,4.593,0,0,1-2.737,1.057,2.647,2.647,0,0,1-2.822-2.981c0-1.993,1.352-3.05,3.852-3.05m1.4,3.344V6.353H89.894c-1.267,0-1.909.468-1.909,1.4a.941.941,0,0,0,1.082,1.057,3.348,3.348,0,0,0,1.96-.728" transform="translate(-59.222 -0.528)"/>
      <path id="패스_55" data-name="패스 55" class="cls-4" d="M120.576,9.356c-.862,2.357-1.892,4.072-3.4,5.026l-1.521-1.439a8.709,8.709,0,0,0,2.044-2.565l-3.278-9.167,2.45-.676,2.095,7.434L121.049.5l2.416.693Z" transform="translate(-79.007 -0.342)"/>
    </g>
  </g>
</svg>
