<svg xmlns="http://www.w3.org/2000/svg" width="48" height="48" viewBox="0 0 48 48">
  <defs>
    <style>
      .cls-1 {
        fill: #fcec4e;
      }

      .cls-1, .cls-3 {
        stroke: #060a10;
      }

      .cls-2, .cls-3 {
        fill: none;
      }

      .cls-3 {
        stroke-linecap: round;
        stroke-linejoin: round;
        stroke-width: 2px;
      }

      .cls-4 {
        stroke: none;
      }
    </style>
  </defs>
  <g id="payMain-lineBlack-icon" transform="translate(-156 -681)">
    <g id="타원_3" data-name="타원 3" class="cls-1" transform="translate(156 681)">
      <circle class="cls-4" cx="24" cy="24" r="24"/>
      <circle class="cls-2" cx="24" cy="24" r="23.5"/>
    </g>
    <g id="그룹_34" data-name="그룹 34">
      <rect id="사각형_52" data-name="사각형 52" class="cls-2" width="20" height="20" transform="translate(170 695)"/>
      <g id="그룹_9" data-name="그룹 9" transform="translate(170.412 695.412)">
        <g id="그룹_10" data-name="그룹 10">
          <g id="그룹_7" data-name="그룹 7">
            <g id="그룹_11" data-name="그룹 11">
              <path id="패스_11" data-name="패스 11" class="cls-3" d="M1,5.706V3.959A2.959,2.959,0,0,1,3.959,1H5.706" transform="translate(-0.412 -0.412)"/>
              <path id="패스_12" data-name="패스 12" class="cls-3" d="M29.706,5.706V3.959A2.959,2.959,0,0,0,26.747,1H25" transform="translate(-10.294 -0.412)"/>
              <path id="패스_13" data-name="패스 13" class="cls-3" d="M1,25v1.747a2.959,2.959,0,0,0,2.959,2.959H5.706" transform="translate(-0.412 -10.294)"/>
              <path id="패스_14" data-name="패스 14" class="cls-3" d="M29.706,25v1.747a2.959,2.959,0,0,1-2.959,2.959H25" transform="translate(-10.294 -10.294)"/>
              <line id="선_1" data-name="선 1" class="cls-3" x2="18.824" transform="translate(0.588 9.764)"/>
            </g>
          </g>
        </g>
      </g>
    </g>
  </g>
</svg>
