<svg xmlns="http://www.w3.org/2000/svg" width="20" height="20" viewBox="0 0 20 20">
  <defs>
    <style>
      .cls-1, .cls-2 {
        fill: none;
      }

      .cls-2 {
        stroke: #fff;
        stroke-miterlimit: 10;
        stroke-width: 1.5px;
      }
    </style>
  </defs>
  <g id="setting-white-icon" transform="translate(-310 -20)">
    <rect id="사각형_62" data-name="사각형 62" class="cls-1" width="20" height="20" transform="translate(310 20)"/>
    <g id="그룹_46" data-name="그룹 46" transform="translate(311 21)">
      <g id="그룹_47" data-name="그룹 47">
        <path id="패스_30" data-name="패스 30" class="cls-2" d="M17.64,7.75h-.684a7.291,7.291,0,0,0-.449-1.075l.486-.487a1.36,1.36,0,0,0,0-1.923L15.735,3.006a1.36,1.36,0,0,0-1.923,0l-.486.487a7.2,7.2,0,0,0-1.076-.449V2.36A1.359,1.359,0,0,0,10.89,1H9.11A1.359,1.359,0,0,0,7.75,2.36v.685a7.171,7.171,0,0,0-1.075.449l-.487-.487a1.359,1.359,0,0,0-1.923,0L3.006,4.265a1.36,1.36,0,0,0,0,1.923l.487.487A7.231,7.231,0,0,0,3.044,7.75H2.36A1.359,1.359,0,0,0,1,9.11V10.89a1.359,1.359,0,0,0,1.36,1.36h.685a7.231,7.231,0,0,0,.449,1.075l-.487.487a1.36,1.36,0,0,0,0,1.923l1.259,1.259a1.359,1.359,0,0,0,1.923,0l.487-.487a7.172,7.172,0,0,0,1.075.449v.685A1.359,1.359,0,0,0,9.11,19H10.89a1.359,1.359,0,0,0,1.36-1.36v-.685a7.2,7.2,0,0,0,1.076-.449l.486.487a1.36,1.36,0,0,0,1.923,0l1.259-1.259a1.36,1.36,0,0,0,0-1.923l-.487-.487a7.233,7.233,0,0,0,.449-1.075h.684A1.359,1.359,0,0,0,19,10.89V9.11A1.359,1.359,0,0,0,17.64,7.75Z" transform="translate(-1 -1)"/>
        <circle id="타원_4" data-name="타원 4" class="cls-2" cx="5" cy="5" r="5" transform="translate(4 4)"/>
      </g>
    </g>
  </g>
</svg>
