<svg xmlns="http://www.w3.org/2000/svg" width="20" height="20" viewBox="0 0 20 20">
  <defs>
    <style>
      .cls-1, .cls-2, .cls-3 {
        fill: none;
      }

      .cls-2, .cls-3 {
        stroke: #060a10;
        stroke-linecap: round;
        stroke-width: 1.5px;
      }

      .cls-2 {
        stroke-linejoin: round;
      }

      .cls-3 {
        stroke-miterlimit: 10;
      }
    </style>
  </defs>
  <g id="sounds-black-icon" transform="translate(-270 -20)">
    <rect id="사각형_63" data-name="사각형 63" class="cls-1" width="20" height="20" transform="translate(270 20)"/>
    <g id="그룹_43" data-name="그룹 43" transform="translate(271.625 21)">
      <g id="그룹_44" data-name="그룹 44">
        <path id="패스_27" data-name="패스 27" class="cls-2" d="M5,13.138V6.563A5.794,5.794,0,0,1,11,1a5.794,5.794,0,0,1,6,5.563v6.87A3.865,3.865,0,0,1,13.327,17" transform="translate(-2.625)"/>
        <path id="패스_28" data-name="패스 28" class="cls-3" d="M3,19.765c-1.1,0-2-1.343-2-3s.9-3,2-3" transform="translate(-0.625 -6.765)"/>
        <path id="패스_29" data-name="패스 29" class="cls-3" d="M25,19.765c1.1,0,2-1.343,2-3s-.9-3-2-3" transform="translate(-10.625 -6.765)"/>
      </g>
    </g>
  </g>
</svg>
