<svg xmlns="http://www.w3.org/2000/svg" xmlns:xlink="http://www.w3.org/1999/xlink" width="56" height="18" viewBox="0 0 56 18">
  <defs>
    <style>
      .cls-1 {
        fill: none;
      }

      .cls-2 {
        clip-path: url(#clip-path);
      }

      .cls-3 {
        fill-rule: evenodd;
      }
    </style>
    <clipPath id="clip-path">
      <rect id="사각형_67" data-name="사각형 67" class="cls-1" width="56" height="18" transform="translate(0 0)"/>
    </clipPath>
  </defs>
  <g id="kakaoPay-logo" transform="translate(0 -0.001)">
    <g id="그룹_49" data-name="그룹 49" class="cls-2" transform="translate(0 0.001)">
      <path id="패스_32" data-name="패스 32" class="cls-3" d="M8.553,0C3.83,0,0,3.157,0,7.054a6.878,6.878,0,0,0,3.968,5.955L3.162,16.15a.268.268,0,0,0,.062.268.23.23,0,0,0,.323.016L7.013,13.99a10.442,10.442,0,0,0,1.54.118c4.724,0,8.554-3.157,8.554-7.054S13.277,0,8.553,0" transform="translate(0 0)"/>
      <path id="패스_33" data-name="패스 33" d="M57.5,13.372v4.555H54.391V1.129h2.192L56.966,2.2A4.328,4.328,0,0,1,60.243.774c3.043,0,4.49,2.377,4.469,6.221,0,4.021-2.235,6.6-5.427,6.6a6.534,6.534,0,0,1-1.788-.222m0-9.532v7.265a8.573,8.573,0,0,0,1,.067c2.213,0,3.065-1.622,3.065-4.177,0-2.244-.575-3.6-2.341-3.6A3.9,3.9,0,0,0,57.5,3.84" transform="translate(-33.184 -0.459)"/>
      <path id="패스_34" data-name="패스 34" d="M90.624,5.861h1.766v-.4a1.752,1.752,0,0,0-1.979-1.955,7.514,7.514,0,0,0-3.192.8l-.851-2.177A7.89,7.89,0,0,1,90.688.773c2.979,0,4.6,1.645,4.6,4.777v7.71H93.093l-.319-1.022a5.725,5.725,0,0,1-3.447,1.355c-2.277,0-3.554-1.422-3.554-3.821,0-2.555,1.7-3.91,4.852-3.91m1.766,4.288V7.927H90.965c-1.6,0-2.4.6-2.4,1.8a1.2,1.2,0,0,0,1.362,1.355,4.173,4.173,0,0,0,2.468-.933" transform="translate(-52.33 -0.459)"/>
      <path id="패스_35" data-name="패스 35" d="M122.173,11.854c-1.085,3.022-2.383,5.221-4.278,6.443l-1.916-1.844a11.135,11.135,0,0,0,2.575-3.288L114.426,1.412l3.086-.866,2.639,9.532L122.768.5l3.043.889Z" transform="translate(-69.811 -0.297)"/>
    </g>
  </g>
</svg>
